<?xml version="1.0" standalone="no"?>
<!DOCTYPE svg PUBLIC "-//W3C//DTD SVG 20010904//EN"
 "http://www.w3.org/TR/2001/REC-SVG-20010904/DTD/svg10.dtd">
<svg version="1.0" xmlns="http://www.w3.org/2000/svg"
 width="800.000000pt" height="800.000000pt" viewBox="0 0 800.000000 800.000000"
 preserveAspectRatio="xMidYMid meet">
<metadata>
Created by potrace 1.16, written by Peter Selinger 2001-2019
</metadata>
<g transform="translate(0.000000,800.000000) scale(0.100000,-0.100000)"
fill="#000000" stroke="none">
<path d="M1061 4750 l-12 -40 -139 0 c-165 0 -152 12 -148 -150 l3 -105 96 -5
95 -5 -187 -540 c-104 -297 -188 -543 -189 -547 0 -3 54 -24 119 -46 l120 -40
19 56 c11 32 84 242 162 467 78 226 153 443 167 483 14 41 29 70 33 65 4 -4
90 -246 190 -538 101 -291 184 -531 185 -532 2 -3 228 76 234 82 4 5 -15 61
-308 906 -34 97 -61 179 -61 182 0 4 43 7 95 7 l95 0 0 130 0 130 -143 0 -144
0 -12 40 c-6 22 -16 40 -21 40 -5 0 -32 -9 -59 -20 -50 -19 -50 -19 -107 0
-31 11 -60 20 -64 20 -4 0 -12 -18 -19 -40z"/>
<path d="M3738 4703 c-16 -4 -18 -46 -20 -586 -3 -661 1 -625 -87 -674 l-48
-27 70 -96 c38 -52 73 -99 77 -103 18 -20 170 103 211 170 36 57 40 156 33
756 l-7 567 -106 -1 c-58 -1 -114 -3 -123 -6z"/>
<path d="M4260 4582 l0 -132 70 0 c39 0 70 -3 70 -6 0 -3 -22 -33 -50 -67
l-50 -62 0 -552 0 -553 130 0 130 0 0 620 0 620 165 0 165 0 0 -620 0 -620
130 0 130 0 0 620 0 620 121 0 c141 0 178 -12 204 -66 14 -30 16 -82 13 -442
-2 -324 -6 -413 -17 -434 -12 -24 -56 -60 -103 -84 -14 -8 -5 -24 59 -111 l76
-102 37 19 c60 30 146 116 174 172 l26 52 0 510 0 511 -29 61 c-33 70 -80 113
-156 142 -50 20 -84 21 -674 28 l-621 7 0 -131z"/>
<path d="M5960 4580 l0 -130 210 0 211 0 -7 -37 c-4 -21 -17 -94 -28 -163
l-21 -125 -182 -3 -183 -2 0 -125 0 -125 160 0 c113 0 160 -3 160 -11 0 -7 -9
-66 -21 -133 -45 -261 -6 -343 196 -412 79 -27 84 -28 378 -32 l297 -4 0 125
0 125 -267 4 c-306 3 -319 6 -341 73 -13 40 -5 150 16 230 l8 30 422 3 422 2
0 125 0 125 -400 0 -400 0 1 28 c0 15 10 88 22 162 l22 135 375 5 375 5 3 128
3 127 -716 0 -715 0 0 -130z"/>
<path d="M2168 4692 l-118 -3 0 -709 0 -710 130 0 130 0 0 501 0 502 32 -7
c101 -20 431 -285 685 -550 l105 -110 -4 -53 c-5 -60 -34 -100 -95 -128 -21
-10 -31 -21 -26 -28 4 -7 38 -54 76 -105 l68 -93 41 23 c53 30 150 123 174
168 18 33 19 68 22 674 l3 639 -92 -6 c-51 -4 -107 -7 -126 -7 l-33 0 0 -350
c0 -192 -3 -350 -6 -350 -4 0 -56 48 -118 107 -209 201 -409 353 -519 395 -28
11 -81 23 -117 26 l-65 7 -3 82 c-2 53 -7 82 -15 85 -7 1 -65 2 -129 0z"/>
<path d="M1190 3584 c-63 -36 -125 -72 -138 -80 l-22 -15 24 -42 c13 -23 42
-72 63 -109 l39 -67 139 80 c77 45 142 83 144 85 6 5 -112 207 -124 211 -5 1
-62 -27 -125 -63z"/>
</g>
</svg>
