 <svg  version="1.0" xmlns="http://www.w3.org/2000/svg"  width="300.000000pt" height="225.000000pt" viewBox="0 0 300.000000 225.000000"  preserveAspectRatio="xMidYMid meet">  <g transform="translate(0.000000,225.000000) scale(0.100000,-0.100000)" fill="#fba1a1" stroke="none"> <path d="M1325 1868 c-21 -58 -95 -306 -95 -318 0 -21 258 -465 270 -465 13 0 270 444 270 465 0 30 -97 324 -108 328 -6 2 -26 -46 -47 -115 -20 -65 -42 -136 -49 -158 l-13 -40 -53 0 -53 0 -13 40 c-7 22 -29 93 -49 158 -34 109 -49 136 -60 105z m51 -180 c35 -108 39 -128 26 -128 -5 0 -17 28 -27 63 -19 64 -33 90 -44 83 -3 -2 -15 -36 -26 -75 -12 -45 -24 -71 -33 -71 -9 0 -12 6 -7 18 4 9 21 63 38 119 18 55 34 99 36 97 2 -2 19 -50 37 -106z m364 -125 c0 -2 -6 -3 -13 -3 -7 0 -21 30 -32 71 -11 39 -23 73 -26 75 -11 7 -25 -19 -44 -83 -10 -35 -22 -63 -27 -63 -13 0 -10 20 23 120 17 52 33 102 35 110 4 11 83 -205 84 -227z m-22 -55 c-8 -13 -50 -85 -93 -160 l-79 -138 -46 0 -46 0 -79 138 c-43 75 -85 147 -93 160 l-14 22 232 0 232 0 -14 -22z"/> <path d="M1363 1404 c-6 -17 -10 -14 50 -47 40 -22 49 -24 54 -11 6 17 10 14 -50 47 -40 22 -49 24 -54 11z"/> <path d="M1585 1394 c-22 -13 -44 -25 -49 -27 -5 -2 -7 -10 -3 -19 5 -14 12 -13 56 10 47 25 62 45 44 55 -5 2 -26 -7 -48 -19z"/> <path d="M725 935 c-83 -29 -137 -126 -101 -180 23 -35 57 -49 101 -41 40 8 85 45 85 71 0 11 -11 5 -34 -19 -72 -77 -172 -25 -120 63 37 63 131 98 214 80 36 -8 145 -45 158 -55 2 -1 -11 -24 -27 -51 -17 -27 -37 -66 -46 -86 -14 -33 -17 -35 -49 -30 -45 7 -81 -2 -106 -27 -31 -31 -23 -40 17 -19 38 19 113 26 113 11 0 -5 -24 -44 -53 -88 -85 -127 -186 -179 -295 -150 -98 25 -142 75 -142 163 0 47 4 56 37 88 39 38 32 48 -10 15 -34 -27 -50 -80 -45 -142 8 -82 66 -138 161 -158 145 -30 286 59 349 221 l22 57 37 -5 c41 -6 115 5 105 14 -4 4 -31 5 -61 4 -30 -1 -59 0 -65 4 -6 4 7 38 31 86 32 65 43 79 57 74 77 -33 118 -45 152 -47 42 -1 70 15 70 40 0 13 -3 12 -20 -3 -23 -21 -82 -17 -153 10 -44 17 -57 42 -16 32 11 -3 19 -1 19 3 0 14 -24 17 -48 7 -17 -8 -33 -5 -76 16 -60 30 -156 57 -196 57 -14 -1 -43 -7 -65 -15z"/> <path d="M2023 734 c-3 -8 -1 -20 5 -26 16 -16 42 -2 42 22 0 24 -38 28 -47 4z"/> <path d="M1478 668 c-13 -13 -30 -34 -39 -48 l-17 -25 5 26 c3 16 -2 32 -12 43 -25 25 -52 4 -101 -82 -53 -92 -62 -102 -90 -102 -30 0 -30 4 0 43 29 39 45 93 36 127 -8 34 -59 39 -100 10 -33 -23 -80 -106 -80 -140 0 -53 42 -76 90 -50 13 7 21 7 25 0 10 -16 40 -12 67 10 14 10 41 50 61 88 58 110 88 120 63 21 -20 -75 -4 -123 41 -127 25 -2 39 3 57 23 l24 25 6 -25 c5 -18 13 -25 32 -25 24 0 73 41 75 64 1 6 4 -5 8 -24 6 -34 7 -35 56 -37 49 -2 51 -1 75 40 14 23 25 50 26 60 1 10 15 38 32 63 30 42 30 60 -1 48 -9 -3 -32 -37 -52 -74 -44 -86 -84 -135 -97 -122 -12 12 5 72 33 118 17 27 17 33 4 38 -18 6 -24 0 -76 -81 -36 -56 -71 -84 -86 -69 -12 12 10 74 43 119 42 58 76 77 106 58 26 -16 39 -3 14 15 -56 41 -148 -16 -190 -117 -16 -38 -59 -89 -76 -89 -16 0 -33 46 -27 72 12 46 60 107 86 110 14 2 26 9 26 17 0 24 -23 24 -47 -1z m-231 -23 c3 -9 -2 -36 -12 -60 -13 -35 -21 -44 -38 -42 -18 2 -23 -4 -25 -30 -5 -50 -52 -57 -52 -7 0 82 104 197 127 139z"/> <path d="M2484 671 c-34 -21 -64 -59 -83 -107 -14 -35 -64 -94 -80 -94 -21 0 -10 49 27 124 21 42 35 76 30 76 -22 0 -96 -46 -127 -79 l-33 -36 25 51 c26 51 26 64 2 64 -18 0 -112 -77 -120 -97 -3 -10 9 -3 29 16 20 19 38 32 42 28 3 -3 -5 -34 -19 -68 -23 -57 -26 -89 -8 -89 4 0 15 16 24 35 21 43 95 125 113 125 18 0 18 0 -12 -59 -28 -53 -27 -94 2 -105 19 -7 69 18 77 39 8 19 27 20 27 0 0 -8 11 -22 25 -31 28 -18 59 -12 93 20 26 23 66 95 58 103 -2 3 -14 -13 -25 -35 -25 -48 -67 -84 -95 -80 -17 2 -21 10 -21 41 0 36 3 40 38 52 66 23 104 71 85 108 -11 22 -35 22 -74 -2z m59 -7 c12 -12 -23 -64 -54 -79 -50 -26 -53 -12 -9 38 41 47 51 53 63 41z"/> <path d="M1994 665 c8 -21 -44 -132 -77 -167 -59 -63 -63 -14 -8 95 21 42 35 77 29 77 -22 0 -86 -41 -118 -77 l-35 -38 35 33 c36 32 67 43 57 20 -3 -7 -16 -37 -29 -66 l-23 -54 23 -18 c27 -23 58 -16 80 18 l16 25 6 -24 c5 -22 12 -24 61 -26 l55 -1 23 43 c13 24 22 45 21 47 -5 6 39 85 55 98 12 10 13 15 4 21 -23 14 -39 -3 -84 -85 -47 -88 -77 -122 -94 -111 -18 10 -13 39 19 111 33 73 33 94 -1 94 -15 0 -19 -4 -15 -15z"/> <path d="M1331 488 c-23 -27 -39 -38 -52 -35 -20 5 -26 -7 -9 -18 16 -10 69 24 86 56 22 44 14 43 -25 -3z"/> </g> </svg> 